<svg width="243" height="251" viewBox="0 0 243 251" fill="none" xmlns="http://www.w3.org/2000/svg">
<path d="M121.466 0.0126953C138.267 0.0126953 154.056 3.30652 168.833 9.89453C183.61 16.4826 196.464 25.4241 207.395 36.7178C218.325 48.0114 226.978 61.2921 233.354 76.5596C239.731 91.8271 242.919 108.141 242.919 125.5C242.919 142.859 239.731 159.173 233.354 174.44C226.978 189.708 218.325 202.989 207.395 214.282C196.464 225.576 183.61 234.517 168.833 241.105C154.056 247.693 138.267 250.987 121.466 250.987C104.665 250.987 88.8762 247.693 74.0996 241.105C59.3227 234.517 46.4689 225.576 35.5381 214.282C24.6074 202.988 15.9535 189.708 9.57715 174.44C3.20086 159.173 0.0126953 142.859 0.0126953 125.5C0.0126953 108.141 3.20086 91.8271 9.57715 76.5596C15.9535 61.2919 24.6074 48.0115 35.5381 36.7178C46.4689 25.424 59.3227 16.4826 74.0996 9.89453C88.8762 3.30661 104.665 0.0127073 121.466 0.0126953ZM121.466 25.0879C94.3351 25.0879 71.3549 34.8156 52.5254 54.2705C33.6959 73.7254 24.2803 97.4686 24.2803 125.5C24.2803 153.531 33.6959 177.275 52.5254 196.729C71.3549 216.184 94.3351 225.912 121.466 225.912C148.597 225.912 171.578 216.184 190.407 196.729C209.237 177.275 218.651 153.531 218.651 125.5C218.651 97.4688 209.237 73.7253 190.407 54.2705C171.578 34.8156 148.597 25.0879 121.466 25.0879ZM121.466 163.162C124.904 163.162 127.786 164.364 130.111 166.767C132.437 169.17 133.6 172.147 133.6 175.7C133.6 179.253 132.437 182.23 130.111 184.633C127.786 187.036 124.904 188.237 121.466 188.237C118.028 188.237 115.146 187.036 112.82 184.633C110.495 182.23 109.332 179.253 109.332 175.7C109.332 172.147 110.495 169.17 112.82 166.767C115.146 164.364 118.028 163.162 121.466 163.162ZM133.6 62.7627V138.037H109.332V62.7627H133.6Z" fill="#1D34AF" stroke="#1D34AF" stroke-width="0.025"/>
</svg>
