<svg width="101" height="109" viewBox="0 0 101 109" fill="none" xmlns="http://www.w3.org/2000/svg">
<path d="M50.5 2C69.5538 2 85 17.4462 85 36.5C85 55.5538 69.5538 71 50.5 71C31.4462 71 16 55.5538 16 36.5C16 17.4462 31.4462 2 50.5 2Z" stroke="#0B2E6F" stroke-width="4" stroke-linecap="round"/>
<path d="M9.94 101.34H4.38L3.46 104H0.52L5.54 90.02H8.8L13.82 104H10.86L9.94 101.34ZM9.18 99.1L7.16 93.26L5.14 99.1H9.18ZM18.4964 94.54C18.8564 94.0067 19.3497 93.5733 19.9764 93.24C20.6164 92.9067 21.3431 92.74 22.1564 92.74C23.1031 92.74 23.9564 92.9733 24.7164 93.44C25.4897 93.9067 26.0964 94.5733 26.5364 95.44C26.9897 96.2933 27.2164 97.2867 27.2164 98.42C27.2164 99.5533 26.9897 100.56 26.5364 101.44C26.0964 102.307 25.4897 102.98 24.7164 103.46C23.9564 103.94 23.1031 104.18 22.1564 104.18C21.3297 104.18 20.6031 104.02 19.9764 103.7C19.3631 103.367 18.8697 102.94 18.4964 102.42V104H15.6964V89.2H18.4964V94.54ZM24.3564 98.42C24.3564 97.7533 24.2164 97.18 23.9364 96.7C23.6697 96.2067 23.3097 95.8333 22.8564 95.58C22.4164 95.3267 21.9364 95.2 21.4164 95.2C20.9097 95.2 20.4297 95.3333 19.9764 95.6C19.5364 95.8533 19.1764 96.2267 18.8964 96.72C18.6297 97.2133 18.4964 97.7933 18.4964 98.46C18.4964 99.1267 18.6297 99.7067 18.8964 100.2C19.1764 100.693 19.5364 101.073 19.9764 101.34C20.4297 101.593 20.9097 101.72 21.4164 101.72C21.9364 101.72 22.4164 101.587 22.8564 101.32C23.3097 101.053 23.6697 100.673 23.9364 100.18C24.2164 99.6867 24.3564 99.1 24.3564 98.42ZM34.1711 104.18C33.1044 104.18 32.1444 103.947 31.2911 103.48C30.4378 103 29.7644 102.327 29.2711 101.46C28.7911 100.593 28.5511 99.5933 28.5511 98.46C28.5511 97.3267 28.7978 96.3267 29.2911 95.46C29.7978 94.5933 30.4844 93.9267 31.3511 93.46C32.2178 92.98 33.1844 92.74 34.2511 92.74C35.3178 92.74 36.2844 92.98 37.1511 93.46C38.0178 93.9267 38.6978 94.5933 39.1911 95.46C39.6978 96.3267 39.9511 97.3267 39.9511 98.46C39.9511 99.5933 39.6911 100.593 39.1711 101.46C38.6644 102.327 37.9711 103 37.0911 103.48C36.2244 103.947 35.2511 104.18 34.1711 104.18ZM34.1711 101.74C34.6778 101.74 35.1511 101.62 35.5911 101.38C36.0444 101.127 36.4044 100.753 36.6711 100.26C36.9378 99.7667 37.0711 99.1667 37.0711 98.46C37.0711 97.4067 36.7911 96.6 36.2311 96.04C35.6844 95.4667 35.0111 95.18 34.2111 95.18C33.4111 95.18 32.7378 95.4667 32.1911 96.04C31.6578 96.6 31.3911 97.4067 31.3911 98.46C31.3911 99.5133 31.6511 100.327 32.1711 100.9C32.7044 101.46 33.3711 101.74 34.1711 101.74ZM44.805 94.64C45.165 94.0533 45.6317 93.5933 46.205 93.26C46.7917 92.9267 47.4583 92.76 48.205 92.76V95.7H47.465C46.585 95.7 45.9183 95.9067 45.465 96.32C45.025 96.7333 44.805 97.4533 44.805 98.48V104H42.005V92.92H44.805V94.64ZM53.3509 95.22V100.58C53.3509 100.953 53.4376 101.227 53.6109 101.4C53.7976 101.56 54.1043 101.64 54.5309 101.64H55.8309V104H54.0709C51.7109 104 50.5309 102.853 50.5309 100.56V95.22H49.2109V92.92H50.5309V90.18H53.3509V92.92H55.8309V95.22H53.3509ZM69.8105 104L66.7305 98.56H65.4105V104H62.6105V90.04H67.8505C68.9305 90.04 69.8505 90.2333 70.6105 90.62C71.3705 90.9933 71.9371 91.5067 72.3105 92.16C72.6971 92.8 72.8905 93.52 72.8905 94.32C72.8905 95.24 72.6238 96.0733 72.0905 96.82C71.5571 97.5533 70.7638 98.06 69.7105 98.34L73.0505 104H69.8105ZM65.4105 96.46H67.7505C68.5105 96.46 69.0771 96.28 69.4505 95.92C69.8238 95.5467 70.0105 95.0333 70.0105 94.38C70.0105 93.74 69.8238 93.2467 69.4505 92.9C69.0771 92.54 68.5105 92.36 67.7505 92.36H65.4105V96.46ZM85.883 92.92V104H83.063V102.6C82.703 103.08 82.2296 103.46 81.643 103.74C81.0696 104.007 80.443 104.14 79.763 104.14C78.8963 104.14 78.1296 103.96 77.463 103.6C76.7963 103.227 76.2696 102.687 75.883 101.98C75.5096 101.26 75.323 100.407 75.323 99.42V92.92H78.123V99.02C78.123 99.9 78.343 100.58 78.783 101.06C79.223 101.527 79.823 101.76 80.583 101.76C81.3563 101.76 81.963 101.527 82.403 101.06C82.843 100.58 83.063 99.9 83.063 99.02V92.92H85.883ZM94.7856 92.76C96.1056 92.76 97.1723 93.18 97.9856 94.02C98.799 94.8467 99.2056 96.0067 99.2056 97.5V104H96.4056V97.88C96.4056 97 96.1856 96.3267 95.7456 95.86C95.3056 95.38 94.7056 95.14 93.9456 95.14C93.1723 95.14 92.559 95.38 92.1056 95.86C91.6656 96.3267 91.4456 97 91.4456 97.88V104H88.6456V92.92H91.4456V94.3C91.819 93.82 92.2923 93.4467 92.8656 93.18C93.4523 92.9 94.0923 92.76 94.7856 92.76Z" fill="#0B2E6F"/>
</svg>
