<svg width="16" height="14" viewBox="0 0 16 14" fill="none" xmlns="http://www.w3.org/2000/svg">
<path d="M1.22863 5.43265L0.614315 6.10566L0 5.43265L0.614315 4.75964L1.22863 5.43265ZM16 13.0481C16 13.3005 15.9085 13.5427 15.7455 13.7212C15.5826 13.8997 15.3615 14 15.1311 14C14.9006 14 14.6796 13.8997 14.5167 13.7212C14.3537 13.5427 14.2622 13.3005 14.2622 13.0481H16ZM4.95884 10.8653L0.614315 6.10566L1.84295 4.75964L6.18747 9.51928L4.95884 10.8653ZM0.614315 4.75964L4.95884 0L6.18747 1.34603L1.84295 6.10566L0.614315 4.75964ZM1.22863 4.48072H9.91767V6.38458H1.22863V4.48072ZM16 11.1442V13.0481H14.2622V11.1442H16ZM9.91767 4.48072C11.5308 4.48072 13.0779 5.18277 14.2185 6.43242C15.3592 7.68206 16 9.37695 16 11.1442H14.2622C14.2622 9.88188 13.8045 8.67125 12.9897 7.77864C12.175 6.88604 11.0699 6.38458 9.91767 6.38458V4.48072Z" fill="#0B2E6F"/>
</svg>
