<svg width="54" height="54" viewBox="0 0 54 54" fill="none" xmlns="http://www.w3.org/2000/svg">
<path d="M27 49.5L26.4375 42.75H25.875C20.55 42.75 16.0313 40.8938 12.3188 37.1813C8.60625 33.4688 6.75 28.95 6.75 23.625C6.75 18.3 8.60625 13.7813 12.3188 10.0688C16.0313 6.35625 20.55 4.5 25.875 4.5C28.5375 4.5 31.0219 4.99688 33.3281 5.99063C35.6344 6.98438 37.6594 8.35313 39.4031 10.0969C41.1469 11.8406 42.5156 13.8656 43.5094 16.1719C44.5031 18.4781 45 20.9625 45 23.625C45 26.4375 44.5406 29.1375 43.6219 31.725C42.7031 34.3125 41.4469 36.7125 39.8531 38.925C38.2594 41.1375 36.3656 43.1438 34.1719 44.9438C31.9781 46.7438 29.5875 48.2625 27 49.5ZM31.5 41.2875C34.1625 39.0375 36.3281 36.4031 37.9969 33.3844C39.6656 30.3656 40.5 27.1125 40.5 23.625C40.5 19.5375 39.0844 16.0781 36.2531 13.2469C33.4219 10.4156 29.9625 9 25.875 9C21.7875 9 18.3281 10.4156 15.4969 13.2469C12.6656 16.0781 11.25 19.5375 11.25 23.625C11.25 27.7125 12.6656 31.1719 15.4969 34.0031C18.3281 36.8344 21.7875 38.25 25.875 38.25H31.5V41.2875ZM25.8188 35.9438C26.4563 35.9438 27 35.7188 27.45 35.2688C27.9 34.8188 28.125 34.275 28.125 33.6375C28.125 33 27.9 32.4563 27.45 32.0063C27 31.5563 26.4563 31.3313 25.8188 31.3313C25.1813 31.3313 24.6375 31.5563 24.1875 32.0063C23.7375 32.4563 23.5125 33 23.5125 33.6375C23.5125 34.275 23.7375 34.8188 24.1875 35.2688C24.6375 35.7188 25.1813 35.9438 25.8188 35.9438ZM24.1875 28.8H27.5625C27.5625 27.675 27.675 26.8875 27.9 26.4375C28.125 25.9875 28.8375 25.1625 30.0375 23.9625C30.7125 23.2875 31.275 22.5563 31.725 21.7688C32.175 20.9813 32.4 20.1375 32.4 19.2375C32.4 17.325 31.7531 15.8906 30.4594 14.9344C29.1656 13.9781 27.6375 13.5 25.875 13.5C24.225 13.5 22.8375 13.9594 21.7125 14.8781C20.5875 15.7969 19.8 16.9125 19.35 18.225L22.5 19.4625C22.6875 18.825 23.0438 18.1969 23.5688 17.5781C24.0938 16.9594 24.8625 16.65 25.875 16.65C26.8875 16.65 27.6469 16.9313 28.1531 17.4938C28.6594 18.0563 28.9125 18.675 28.9125 19.35C28.9125 19.9875 28.725 20.5594 28.35 21.0656C27.975 21.5719 27.525 22.0875 27 22.6125C25.6875 23.7375 24.8906 24.6281 24.6094 25.2844C24.3281 25.9406 24.1875 27.1125 24.1875 28.8Z" fill="#0B2E6F"/>
</svg>
