<svg width="53" height="53" viewBox="0 0 53 53" fill="none" xmlns="http://www.w3.org/2000/svg">
<path d="M26.5 46.375C21.4208 46.375 16.995 44.6911 13.2224 41.3234C9.44983 37.9557 7.2875 33.7507 6.73542 28.7083H11.2625C11.7778 32.5361 13.48 35.7014 16.3693 38.2042C19.2585 40.7069 22.6354 41.9583 26.5 41.9583C30.8062 41.9583 34.4592 40.4585 37.4589 37.4589C40.4585 34.4592 41.9583 30.8062 41.9583 26.5C41.9583 22.1937 40.4585 18.5408 37.4589 15.5411C34.4592 12.5415 30.8062 11.0417 26.5 11.0417C23.9604 11.0417 21.5865 11.6306 19.3781 12.8083C17.1698 13.9861 15.3111 15.6056 13.8021 17.6667H19.875V22.0833H6.625V8.83333H11.0417V14.0229C12.9187 11.6674 15.2099 9.84549 17.9151 8.55729C20.6203 7.2691 23.4819 6.625 26.5 6.625C29.2604 6.625 31.846 7.14948 34.2568 8.19844C36.6675 9.2474 38.7654 10.6644 40.5505 12.4495C42.3356 14.2345 43.7526 16.3325 44.8016 18.7432C45.8505 21.154 46.375 23.7396 46.375 26.5C46.375 29.2604 45.8505 31.846 44.8016 34.2568C43.7526 36.6675 42.3356 38.7654 40.5505 40.5505C38.7654 42.3356 36.6675 43.7526 34.2568 44.8016C31.846 45.8505 29.2604 46.375 26.5 46.375ZM32.6833 35.775L24.2917 27.3833V15.4583H28.7083V25.6167L35.775 32.6833L32.6833 35.775Z" fill="#0B2E6F"/>
</svg>
