<svg width="208" height="56" viewBox="0 0 208 56" fill="none" xmlns="http://www.w3.org/2000/svg">
<path d="M0 54.776V53.2459L7.17281 50.9508V5.04918L0 2.7541V1.22404H22.9838V2.7541L15.811 5.04918V50.9508L22.9838 53.2459V54.776H0Z" fill="white"/>
<path d="M27.6505 34.6557V28.918H52.3311V34.6557H27.6505Z" fill="white"/>
<path d="M59.2555 54.776V53.2459L67.431 50.5683L66.3512 52.0984V3.90164L67.431 5.43169L59.2555 2.7541V1.22404H82.3936C85.9928 1.22404 89.1551 1.81056 91.8802 2.9836C94.6054 4.10565 96.7392 5.6612 98.2817 7.65027C99.8243 9.63934 100.596 11.9599 100.596 14.612C100.596 18.1311 99.6957 21.2168 97.8961 23.8689C96.0965 26.4699 93.577 28.4845 90.3377 29.9126C87.0983 31.3406 83.242 32.0546 78.7686 32.0546H73.9096L75.0665 30.9836V52.0984L73.9867 50.6448L82.8564 53.2459V54.776H59.2555ZM75.0665 30.1421L73.9096 28.9945H80.7739C83.859 28.9945 86.3528 27.9235 88.2552 25.7814C90.2091 23.5883 91.1861 20.6812 91.1861 17.0601C91.1861 14.663 90.6976 12.5719 89.7206 10.7869C88.7437 9.00182 87.4068 7.59927 85.7101 6.57923C84.0647 5.50819 82.1622 4.97268 80.0027 4.97268H73.9096L75.0665 3.90164V30.1421Z" fill="white"/>
<path d="M134.217 56C130.206 56 126.53 55.337 123.188 54.0109C119.897 52.6339 117.017 50.6958 114.549 48.1967C112.133 45.6976 110.256 42.765 108.919 39.3989C107.582 35.9818 106.914 32.2586 106.914 28.2295C106.914 24.1494 107.582 20.4007 108.919 16.9836C110.256 13.5155 112.133 10.5319 114.549 8.03279C117.017 5.4827 119.897 3.51913 123.188 2.14208C126.53 0.765027 130.206 0.0510012 134.217 0C136.068 0 138.047 0.229508 140.156 0.688525C142.315 1.14754 144.475 1.78506 146.634 2.60109C148.845 3.36612 150.876 4.28415 152.727 5.35519V16.6011H149.565C149.616 14.867 149.179 13.2095 148.254 11.6284C147.328 10.0474 146.069 8.61931 144.475 7.34426C142.881 6.06922 141.055 5.07468 138.999 4.36065C136.993 3.59563 134.885 3.21311 132.674 3.21311C129.538 3.21311 126.761 4.05464 124.344 5.7377C121.928 7.42076 120.025 9.74135 118.637 12.6995C117.3 15.6576 116.632 19.1002 116.632 23.0273C116.632 28.8415 117.454 33.9927 119.1 38.4809C120.745 42.969 122.982 46.4882 125.81 49.0382C128.689 51.5373 131.98 52.7869 135.682 52.7869C138.407 52.7869 140.798 52.2259 142.855 51.1038C144.963 49.9818 146.608 48.4007 147.791 46.3607C148.974 44.3206 149.565 42 149.565 39.3989H152.727V50.6448C150.876 51.6648 148.845 52.5829 146.634 53.3989C144.475 54.2149 142.315 54.8525 140.156 55.3115C138.047 55.7705 136.068 56 134.217 56Z" fill="white"/>
<path d="M156.171 54.776V53.2459L164.346 50.5683L163.266 52.0984V3.90164L164.346 5.43169L156.171 2.7541V1.22404H180.08C183.679 1.22404 186.867 1.78506 189.644 2.9071C192.42 4.02914 194.58 5.5847 196.122 7.57377C197.665 9.56284 198.436 11.8579 198.436 14.459C198.436 16.9581 197.922 19.2787 196.894 21.4208C195.917 23.5628 194.528 25.3989 192.729 26.929C190.929 28.459 188.821 29.6066 186.404 30.3716L186.636 28.918L199.67 47.8142C200.442 48.9362 201.239 49.8798 202.061 50.6448C202.884 51.3588 203.835 51.8944 204.915 52.2514L208 53.3989V54.776H193.5L177.998 30.6776L179.849 31.7486H170.671L171.982 30.5246V52.0984L170.902 50.6448L179.772 53.2459V54.776H156.171ZM171.982 29.8361L170.825 28.6885H179.926C182.497 28.6885 184.605 27.592 186.25 25.3989C187.896 23.2058 188.718 20.3752 188.718 16.9071C188.718 13.439 187.716 10.6084 185.71 8.4153C183.705 6.17122 181.108 5.04918 177.92 5.04918H170.825L171.982 3.90164V29.8361Z" fill="white"/>
</svg>
