<svg width="318" height="86" viewBox="0 0 318 86" fill="none" xmlns="http://www.w3.org/2000/svg">
<path d="M0 84.1202V81.7705L10.9661 78.2459V7.7541L0 4.22951V1.87978H35.1388V4.22951L24.1726 7.7541V78.2459L35.1388 81.7705V84.1202H0Z" fill="url(#paint0_linear_34_232)"/>
<path d="M42.2733 53.2213V44.4098H80.0062V53.2213H42.2733Z" fill="url(#paint1_linear_34_232)"/>
<path d="M90.5925 84.1202V81.7705L103.092 77.6585L101.441 80.0082V5.9918L103.092 8.34153L90.5925 4.22951V1.87978H125.967C131.47 1.87978 136.304 2.78051 140.471 4.58196C144.637 6.3051 147.899 8.69399 150.258 11.7486C152.616 14.8033 153.795 18.367 153.795 22.4399C153.795 27.8443 152.419 32.5829 149.668 36.6557C146.917 40.6503 143.065 43.7441 138.112 45.9372C133.16 48.1302 127.264 49.2268 120.425 49.2268H112.996L114.765 47.582V80.0082L113.114 77.7759L126.675 81.7705V84.1202H90.5925ZM114.765 46.2896L112.996 44.5273H123.491C128.208 44.5273 132.02 42.8825 134.929 39.5929C137.916 36.2249 139.409 31.7605 139.409 26.1994C139.409 22.5182 138.663 19.3069 137.169 16.5656C135.675 13.8242 133.632 11.6703 131.037 10.1038C128.522 8.45901 125.613 7.63661 122.312 7.63661H112.996L114.765 5.9918V46.2896Z" fill="url(#paint2_linear_34_232)"/>
<path d="M205.197 86C199.065 86 193.445 84.9818 188.335 82.9454C183.304 80.8306 178.902 77.8543 175.128 74.0164C171.434 70.1785 168.564 65.6749 166.521 60.5055C164.477 55.2577 163.455 49.5401 163.455 43.3525C163.455 37.0865 164.477 31.3297 166.521 26.082C168.564 20.7559 171.434 16.174 175.128 12.3361C178.902 8.41986 183.304 5.40437 188.335 3.28962C193.445 1.17486 199.065 0.0783232 205.197 0C208.027 0 211.053 0.352459 214.276 1.05738C217.578 1.7623 220.879 2.74135 224.181 3.99453C227.561 5.16939 230.666 6.57923 233.496 8.22404V25.4945H228.662C228.741 22.8315 228.072 20.286 226.657 17.8579C225.242 15.4299 223.316 13.2368 220.879 11.2787C218.443 9.32058 215.652 7.79326 212.507 6.69672C209.442 5.52186 206.219 4.93443 202.838 4.93443C198.043 4.93443 193.798 6.22678 190.104 8.81147C186.409 11.3962 183.5 14.9599 181.378 19.5027C179.334 24.0455 178.312 29.3324 178.312 35.3634C178.312 44.2923 179.57 52.2031 182.085 59.0956C184.601 65.9882 188.02 71.3925 192.344 75.3087C196.746 79.1466 201.777 81.0656 207.437 81.0656C211.603 81.0656 215.259 80.204 218.403 78.4809C221.626 76.7577 224.142 74.3297 225.95 71.1967C227.758 68.0638 228.662 64.5 228.662 60.5055H233.496V77.7759C230.666 79.3424 227.561 80.7523 224.181 82.0055C220.879 83.2586 217.578 84.2377 214.276 84.9426C211.053 85.6475 208.027 86 205.197 86Z" fill="url(#paint3_linear_34_232)"/>
<path d="M238.761 84.1202V81.7705L251.26 77.6585L249.609 80.0082V5.9918L251.26 8.34153L238.761 4.22951V1.87978H275.315C280.817 1.87978 285.691 2.74134 289.936 4.46448C294.181 6.18761 297.483 8.5765 299.841 11.6311C302.199 14.6858 303.378 18.2104 303.378 22.2049C303.378 26.0428 302.592 29.6066 301.02 32.8962C299.527 36.1858 297.404 39.0055 294.653 41.3552C291.901 43.7049 288.678 45.4672 284.984 46.6421L285.337 44.4098L305.265 73.429C306.444 75.1521 307.663 76.6011 308.921 77.7759C310.178 78.8725 311.633 79.6949 313.283 80.2432L318 82.0055V84.1202H295.832L272.131 47.112L274.961 48.7568H260.929L262.934 46.877V80.0082L261.283 77.7759L274.843 81.7705V84.1202H238.761ZM262.934 45.8197L261.165 44.0574H275.079C279.009 44.0574 282.232 42.3734 284.748 39.0055C287.263 35.6375 288.521 31.2905 288.521 25.9645C288.521 20.6384 286.988 16.2914 283.922 12.9235C280.857 9.47723 276.887 7.7541 272.013 7.7541H261.165L262.934 5.9918V45.8197Z" fill="url(#paint4_linear_34_232)"/>
<defs>
<linearGradient id="paint0_linear_34_232" x1="158.236" y1="-116.675" x2="158.236" y2="210.151" gradientUnits="userSpaceOnUse">
<stop stop-color="#23268B"/>
<stop offset="1" stop-color="#0088FF"/>
</linearGradient>
<linearGradient id="paint1_linear_34_232" x1="158.236" y1="-116.675" x2="158.236" y2="210.151" gradientUnits="userSpaceOnUse">
<stop stop-color="#23268B"/>
<stop offset="1" stop-color="#0088FF"/>
</linearGradient>
<linearGradient id="paint2_linear_34_232" x1="158.236" y1="-116.675" x2="158.236" y2="210.151" gradientUnits="userSpaceOnUse">
<stop stop-color="#23268B"/>
<stop offset="1" stop-color="#0088FF"/>
</linearGradient>
<linearGradient id="paint3_linear_34_232" x1="158.236" y1="-116.675" x2="158.236" y2="210.151" gradientUnits="userSpaceOnUse">
<stop stop-color="#23268B"/>
<stop offset="1" stop-color="#0088FF"/>
</linearGradient>
<linearGradient id="paint4_linear_34_232" x1="158.236" y1="-116.675" x2="158.236" y2="210.151" gradientUnits="userSpaceOnUse">
<stop stop-color="#23268B"/>
<stop offset="1" stop-color="#0088FF"/>
</linearGradient>
</defs>
</svg>
