<svg width="29" height="44" viewBox="0 0 29 44" fill="none" xmlns="http://www.w3.org/2000/svg">
<path d="M13.2917 39.1111H15.7083V34.5889L24.1667 26.0333V14.6667H4.83333V26.0333L13.2917 34.5889V39.1111ZM8.45833 44V36.6667L0 28.1111V14.6667C0 13.3222 0.473264 12.1713 1.41979 11.2139C2.36632 10.2565 3.50417 9.77778 4.83333 9.77778H7.25L4.83333 12.2222V0H9.66667V9.77778H19.3333V0H24.1667V12.2222L21.75 9.77778H24.1667C25.4958 9.77778 26.6337 10.2565 27.5802 11.2139C28.5267 12.1713 29 13.3222 29 14.6667V28.1111L20.5417 36.6667V44H8.45833Z" fill="#34C759"/>
</svg>
