<svg width="38" height="36" viewBox="0 0 38 36" fill="none" xmlns="http://www.w3.org/2000/svg">
<path d="M2.43864 20.36H29.6783L17.7777 31.9374C16.8266 32.8626 16.8266 34.381 17.7777 35.3062C18.0033 35.5261 18.2713 35.7006 18.5663 35.8197C18.8613 35.9387 19.1776 36 19.4969 36C19.8163 36 20.1326 35.9387 20.4276 35.8197C20.7226 35.7006 20.9906 35.5261 21.2162 35.3062L37.2868 19.672C37.5129 19.4526 37.6923 19.1919 37.8146 18.9049C37.937 18.6179 38 18.3102 38 17.9995C38 17.6888 37.937 17.3811 37.8146 17.0941C37.6923 16.8071 37.5129 16.5464 37.2868 16.327L21.2162 0.692787C20.9904 0.473148 20.7224 0.29892 20.4274 0.18005C20.1324 0.0611801 19.8162 0 19.4969 0C19.1776 0 18.8615 0.0611801 18.5665 0.18005C18.2715 0.29892 18.0035 0.473148 17.7777 0.692787C17.5519 0.91243 17.3728 1.17319 17.2506 1.46016C17.1285 1.74714 17.0656 2.05472 17.0656 2.36534C17.0656 2.67596 17.1285 2.98354 17.2506 3.27051C17.3728 3.55749 17.5519 3.81824 17.7777 4.03789L29.6783 15.6152H2.43864C1.09739 15.6152 0 16.6828 0 17.9876C0 19.2925 1.09739 20.36 2.43864 20.36Z" fill="#F4F4F6"/>
</svg>
