<svg width="85" height="85" viewBox="0 0 85 85" fill="none" xmlns="http://www.w3.org/2000/svg">
<rect x="1.5" y="1.5" width="82" height="82" rx="41" fill="#2441DA"/>
<rect x="1.5" y="1.5" width="82" height="82" rx="41" stroke="#2441DA" stroke-width="3"/>
<mask id="mask0_47_2221" style="mask-type:alpha" maskUnits="userSpaceOnUse" x="14" y="13" width="59" height="59">
<rect x="14.166" y="13.3333" width="58.3333" height="58.3333" fill="#D9D9D9"/>
</mask>
<g mask="url(#mask0_47_2221)">
<path d="M65.209 30.3472V59.5139C65.209 60.8507 64.733 61.9951 63.781 62.947C62.8291 63.899 61.6847 64.375 60.3479 64.375H26.3201C24.9833 64.375 23.8389 63.899 22.8869 62.947C21.935 61.9951 21.459 60.8507 21.459 59.5139V25.4861C21.459 24.1493 21.935 23.0049 22.8869 22.053C23.8389 21.101 24.9833 20.625 26.3201 20.625H55.4868L65.209 30.3472ZM48.4989 54.9566C49.9167 53.5388 50.6257 51.8171 50.6257 49.7917C50.6257 47.7662 49.9167 46.0446 48.4989 44.6267C47.0811 43.2089 45.3594 42.5 43.334 42.5C41.3085 42.5 39.5869 43.2089 38.1691 44.6267C36.7512 46.0446 36.0423 47.7662 36.0423 49.7917C36.0423 51.8171 36.7512 53.5388 38.1691 54.9566C39.5869 56.3744 41.3085 57.0833 43.334 57.0833C45.3594 57.0833 47.0811 56.3744 48.4989 54.9566ZM28.7507 37.6389H50.6257V27.9167H28.7507V37.6389Z" fill="white"/>
</g>
</svg>
