<svg width="38" height="38" viewBox="0 0 38 38" fill="none" xmlns="http://www.w3.org/2000/svg">
<path d="M0 9.5V0H9.5V3.8H3.8V9.5H0ZM0 38V28.5H3.8V34.2H9.5V38H0ZM28.5 38V34.2H34.2V28.5H38V38H28.5ZM34.2 9.5V3.8H28.5V0H38V9.5H34.2ZM29.45 29.45H32.3V32.3H29.45V29.45ZM29.45 23.75H32.3V26.6H29.45V23.75ZM26.6 26.6H29.45V29.45H26.6V26.6ZM23.75 29.45H26.6V32.3H23.75V29.45ZM20.9 26.6H23.75V29.45H20.9V26.6ZM26.6 20.9H29.45V23.75H26.6V20.9ZM23.75 23.75H26.6V26.6H23.75V23.75ZM20.9 20.9H23.75V23.75H20.9V20.9ZM32.3 5.7V17.1H20.9V5.7H32.3ZM17.1 20.9V32.3H5.7V20.9H17.1ZM17.1 5.7V17.1H5.7V5.7H17.1ZM14.25 29.45V23.75H8.55V29.45H14.25ZM14.25 14.25V8.55H8.55V14.25H14.25ZM29.45 14.25V8.55H23.75V14.25H29.45Z" fill="#F4F4F6"/>
</svg>
