<svg width="58" height="58" viewBox="0 0 58 58" fill="none" xmlns="http://www.w3.org/2000/svg">
<path d="M22.3541 53.1663L21.3874 45.433C20.8638 45.2316 20.3704 44.9899 19.9072 44.708C19.444 44.4261 18.9909 44.124 18.5478 43.8018L11.3582 46.8226L4.7124 35.3434L10.9353 30.6309C10.895 30.349 10.8749 30.0771 10.8749 29.8153V28.184C10.8749 27.9222 10.895 27.6504 10.9353 27.3684L4.7124 22.6559L11.3582 11.1768L18.5478 14.1976C18.9909 13.8754 19.4541 13.5733 19.9374 13.2913C20.4207 13.0094 20.9041 12.7677 21.3874 12.5663L22.3541 4.83301H35.6457L36.6124 12.5663C37.136 12.7677 37.6294 13.0094 38.0926 13.2913C38.5558 13.5733 39.0089 13.8754 39.452 14.1976L46.6416 11.1768L53.2874 22.6559L47.0645 27.3684C47.1048 27.6504 47.1249 27.9222 47.1249 28.184V29.8153C47.1249 30.0771 47.0846 30.349 47.0041 30.6309L53.227 35.3434L46.5812 46.8226L39.452 43.8018C39.0089 44.124 38.5457 44.4261 38.0624 44.708C37.5791 44.9899 37.0957 45.2316 36.6124 45.433L35.6457 53.1663H22.3541ZM26.5832 48.333H31.3562L32.202 41.9288C33.4506 41.6066 34.6086 41.1334 35.6759 40.509C36.7433 39.8847 37.72 39.1295 38.6062 38.2434L44.5874 40.7205L46.9437 36.6122L41.7478 32.6851C41.9492 32.1212 42.0902 31.5271 42.1707 30.9028C42.2513 30.2785 42.2916 29.6441 42.2916 28.9997C42.2916 28.3552 42.2513 27.7209 42.1707 27.0965C42.0902 26.4722 41.9492 25.8781 41.7478 25.3143L46.9437 21.3872L44.5874 17.2788L38.6062 19.8163C37.72 18.89 36.7433 18.1146 35.6759 17.4903C34.6086 16.866 33.4506 16.3927 32.202 16.0705L31.4166 9.66634H26.6437L25.7978 16.0705C24.5492 16.3927 23.3912 16.866 22.3239 17.4903C21.2565 18.1146 20.2798 18.8698 19.3937 19.7559L13.4124 17.2788L11.0562 21.3872L16.252 25.2538C16.0506 25.858 15.9096 26.4622 15.8291 27.0663C15.7485 27.6705 15.7082 28.315 15.7082 28.9997C15.7082 29.6441 15.7485 30.2684 15.8291 30.8726C15.9096 31.4768 16.0506 32.0809 16.252 32.6851L11.0562 36.6122L13.4124 40.7205L19.3937 38.183C20.2798 39.1094 21.2565 39.8847 22.3239 40.509C23.3912 41.1334 24.5492 41.6066 25.7978 41.9288L26.5832 48.333ZM29.1207 37.458C31.4568 37.458 33.4506 36.6323 35.102 34.9809C36.7534 33.3295 37.5791 31.3358 37.5791 28.9997C37.5791 26.6636 36.7534 24.6698 35.102 23.0184C33.4506 21.367 31.4568 20.5413 29.1207 20.5413C26.7443 20.5413 24.7405 21.367 23.1093 23.0184C21.478 24.6698 20.6624 26.6636 20.6624 28.9997C20.6624 31.3358 21.478 33.3295 23.1093 34.9809C24.7405 36.6323 26.7443 37.458 29.1207 37.458Z" fill="#0B2E6F"/>
</svg>
