<svg width="632" height="519" viewBox="0 0 632 519" fill="none" xmlns="http://www.w3.org/2000/svg">
<path fill-rule="evenodd" clip-rule="evenodd" d="M1138.56 348.467C1112.96 299.287 1076.91 248.957 1027.1 213.285C918.528 133.333 699.996 71.8515 570.658 42.0209C449.251 14.565 237.544 -19.1713 118.346 13.3401C118.346 13.3401 -8.98249 34.5214 0.505142 185.627C0.704357 194.583 0.90359 203.538 3.74637 213.285C11.4416 283.791 26.4704 329.805 52.2727 387.941C92.9045 483.135 178.876 609.697 240.874 681.636C337.022 793.453 440.702 889.733 571.036 964.342C573.679 965.133 573.68 965.133 573.68 965.133C712.143 1051.07 854.699 1084.86 854.699 1084.86C854.699 1084.86 867.917 1088.82 887.238 1091.64C892.525 1093.22 895.168 1094.01 897.812 1094.8C911.03 1098.76 922.419 1099.21 936.452 1100.44C1127.01 1127.85 1272.66 1064.71 1275.22 825.283C1273.59 830.725 1260.7 565.919 1138.56 348.467Z" fill="url(#paint0_linear_109_210)"/>
<defs>
<linearGradient id="paint0_linear_109_210" x1="1208.64" y1="958.334" x2="-30.4805" y2="94.0874" gradientUnits="userSpaceOnUse">
<stop stop-color="#8BCDF6"/>
<stop offset="0.451923" stop-color="#1F3BD9"/>
<stop offset="0.490385" stop-color="#1F3BD9"/>
<stop offset="1" stop-color="#8BCDF6"/>
</linearGradient>
</defs>
</svg>
