<svg width="405" height="916" viewBox="0 0 405 916" fill="none" xmlns="http://www.w3.org/2000/svg">
<path fill-rule="evenodd" clip-rule="evenodd" d="M-805.518 109.082C-775.101 59.2101 -733.62 8.87383 -678.718 -25.0739C-558.898 -101.382 -324.806 -150.438 -186.726 -172.58C-57.1522 -192.791 167.788 -213.169 290.768 -170.502C290.768 -170.502 423.101 -139.166 402.362 18.994C401.515 28.3935 400.667 37.793 396.985 47.8361C383.872 121.401 364.797 168.698 333.532 227.969C284.04 325.139 184.653 452.05 114.358 523.252C5.32508 633.939 -110.519 727.758 -252.836 796.897C-255.671 797.541 -255.671 797.541 -255.671 797.541C-407.341 878.01 -559.597 903.37 -559.597 903.37C-559.597 903.37 -573.773 906.589 -594.283 908.176C-599.953 909.464 -602.788 910.107 -605.624 910.751C-619.8 913.97 -631.804 913.626 -646.642 913.926C-848.901 929.155 -997.506 852.408 -983.132 600.554C-981.807 606.391 -949.39 328.957 -805.518 109.082Z" fill="url(#paint0_linear_109_209)"/>
<defs>
<linearGradient id="paint0_linear_109_209" x1="-922.632" y1="745.155" x2="441.455" y2="-75.0209" gradientUnits="userSpaceOnUse">
<stop stop-color="#8BCDF6"/>
<stop offset="0.451923" stop-color="#1F3BD9"/>
<stop offset="0.490385" stop-color="#1F3BD9"/>
<stop offset="1" stop-color="#8BCDF6"/>
</linearGradient>
</defs>
</svg>
