<svg width="63" height="54" viewBox="0 0 63 54" fill="none" xmlns="http://www.w3.org/2000/svg">
<path fill-rule="evenodd" clip-rule="evenodd" d="M43.8312 37.311C43.8216 37.2973 43.8451 37.3301 43.8312 37.311C43.7954 37.2624 43.7586 37.2144 43.721 37.1671C43.5995 37.0151 43.4715 36.8683 43.3372 36.7273C43.0071 36.379 42.5215 35.9324 41.866 35.4907C40.542 34.5987 38.5556 33.75 35.8443 33.75C33.133 33.75 31.1466 34.5987 29.8226 35.4907C29.1671 35.9324 28.6815 36.379 28.3514 36.7273C28.2172 36.8683 28.0891 37.0151 27.9676 37.1671C27.922 37.2245 27.9956 37.129 27.9676 37.1671L27.7994 37.393C27.5759 37.7218 27.476 38.1184 27.5175 38.5131C27.5589 38.9078 27.7389 39.2754 28.0258 39.5512L34.6646 45.9321C35.3225 46.5643 36.366 46.5643 37.0239 45.9321L43.6628 39.5512C43.9497 39.2754 44.1298 38.9078 44.1712 38.5131C44.2126 38.1184 44.1128 37.7218 43.8893 37.393L43.8312 37.311Z" fill="#43C751"/>
<path fill-rule="evenodd" clip-rule="evenodd" d="M53.3566 28.462C53.3422 28.439 53.2933 28.3601 53.2704 28.3249C53.2085 28.2307 53.1445 28.1379 53.0784 28.0466C52.9138 27.8184 52.674 27.5091 52.3507 27.1463C51.7037 26.4207 50.7211 25.4797 49.3363 24.5479C46.5496 22.6725 42.2061 20.8828 35.8451 20.8828C29.4841 20.8828 25.1405 22.6725 22.3538 24.5479C20.969 25.4797 19.9865 26.4207 19.3395 27.1463C19.0161 27.5091 18.7763 27.8184 18.6117 28.0466C18.5456 28.1379 18.4816 28.2307 18.4197 28.3249C18.3968 28.3602 18.3782 28.3893 18.3638 28.4123L18.3336 28.462C18.1393 28.789 18.0616 29.1717 18.1132 29.5481C18.1647 29.9244 18.3425 30.2725 18.6177 30.5359L22.3632 34.1219C22.5273 34.2791 22.7217 34.4018 22.9346 34.4826C23.1475 34.5635 23.3746 34.601 23.6023 34.5927C23.8301 34.5844 24.0538 34.5306 24.2602 34.4345C24.4666 34.3384 24.6514 34.202 24.8036 34.0333L24.8243 34.0112C24.8463 33.9881 24.8843 33.9489 24.9383 33.8957C25.1035 33.7338 25.2744 33.5777 25.4507 33.4278C25.9176 33.0286 26.6274 32.4842 27.5674 31.9364C29.4443 30.8429 32.2272 29.7422 35.8451 29.7422C39.463 29.7422 42.2459 30.8429 44.1227 31.9364C45.0628 32.4842 45.7725 33.0286 46.2395 33.4278C46.4158 33.5777 46.5867 33.7338 46.7519 33.8957C46.7976 33.9407 46.8425 33.9866 46.8865 34.0333L46.886 34.0327L46.8846 34.0311M46.8846 34.0311L46.8874 34.0341C47.0396 34.2026 47.2244 34.3389 47.4308 34.4349C47.6371 34.5308 47.8608 34.5845 48.0885 34.5927C48.3161 34.6009 48.5431 34.5634 48.7559 34.4825C48.9687 34.4016 49.1629 34.279 49.327 34.1219L53.0725 30.5359C53.3477 30.2725 53.5254 29.9244 53.577 29.5481C53.6285 29.1717 53.5509 28.789 53.3566 28.462" fill="#43C751"/>
<path d="M62.5728 19.1177C62.6092 19.1661 62.6981 19.2895 62.6981 19.2895C62.9271 19.6183 63.0311 20.0174 62.9917 20.4154C62.9523 20.8135 62.772 21.1847 62.4829 21.4628L58.591 25.2069C58.4239 25.3677 58.2254 25.4925 58.0078 25.5738C57.7902 25.6551 57.5581 25.6911 57.3259 25.6795C57.0937 25.668 56.8664 25.6091 56.658 25.5066C56.4497 25.404 56.2647 25.2601 56.1147 25.0835L56.1143 25.0832L56.1053 25.0728C56.0956 25.0615 56.0785 25.0423 56.0542 25.015C55.9778 24.9302 55.9001 24.8465 55.8212 24.7641C55.608 24.5409 55.2807 24.2126 54.8422 23.8138C53.9644 23.0155 52.6475 21.9402 50.9177 20.8627C47.4598 18.7085 42.3768 16.5586 35.8447 16.5586C29.3126 16.5586 24.2296 18.7085 20.7717 20.8627C19.0419 21.9402 17.725 23.0155 16.8472 23.8138C16.4088 24.2126 16.0814 24.5409 15.8683 24.7641C15.7893 24.8465 15.7116 24.9302 15.6352 25.015C15.6108 25.0423 15.5938 25.0615 15.5841 25.0728L15.5791 25.0785L15.5759 25.0821L15.5755 25.0827L15.5751 25.0832L15.5746 25.0836C15.4246 25.2601 15.2396 25.4041 15.0313 25.5066C14.8229 25.6091 14.5956 25.668 14.3634 25.6795C14.1313 25.6911 13.8992 25.6551 13.6816 25.5738C13.464 25.4925 13.2655 25.3676 13.0984 25.2069L9.20654 21.4628C8.91743 21.1847 8.73707 20.8135 8.69763 20.4154C8.65819 20.0174 8.76224 19.6184 8.9912 19.2895L8.99237 19.2878L8.99375 19.286L8.99693 19.2815L9.00531 19.2696L9.03077 19.234C9.05163 19.205 9.08024 19.1662 9.11659 19.1177C9.18935 19.0207 9.29341 18.8858 9.4294 18.7184C9.70127 18.3836 10.1014 17.9184 10.6352 17.3665C11.7019 16.2633 13.3066 14.8098 15.4916 13.3615C19.8737 10.4568 26.561 7.59375 35.8447 7.59375C45.1284 7.59375 51.8157 10.4568 56.1978 13.3615C58.3828 14.8098 59.9875 16.2633 61.0542 17.3665C61.588 17.9184 61.9881 18.3836 62.26 18.7184C62.3668 18.8495 62.4711 18.9826 62.5728 19.1177Z" fill="#43C751"/>
</svg>
